<?xml version="1.0" standalone="no"?><!DOCTYPE svg PUBLIC "-//W3C//DTD SVG 1.1//EN" "http://www.w3.org/Graphics/SVG/1.1/DTD/svg11.dtd"><svg t="1776835818697" class="icon" viewBox="0 0 1024 1024" version="1.1" xmlns="http://www.w3.org/2000/svg" p-id="3218" xmlns:xlink="http://www.w3.org/1999/xlink" width="200" height="200"><path d="M510.2592 951.0912C268.4416 951.0912 71.68 754.3296 71.68 512.512s196.7616-438.5792 438.5792-438.5792c145.92 0 281.856 72.2944 363.6736 193.3312a30.70976 30.70976 0 0 1-8.2432 42.6496 30.70976 30.70976 0 0 1-42.6496-8.2432C752.64 197.5296 635.7504 135.3728 510.2592 135.3728 302.2848 135.3728 133.12 304.5376 133.12 512.512s169.1648 377.1392 377.1392 377.1392 377.1392-169.1648 377.1392-377.1392c0-16.9472 13.7728-30.72 30.72-30.72s30.72 13.7728 30.72 30.72c0 241.8176-196.7616 438.5792-438.5792 438.5792z" fill="#303135" p-id="3219"></path><path d="M863.232 322.2016h-188.2624c-16.9472 0-30.72-13.7728-30.72-30.72s13.7728-30.72 30.72-30.72h157.5424V96.6656c0-16.9472 13.7728-30.72 30.72-30.72s30.72 13.7728 30.72 30.72v194.7648c0 16.9984-13.7728 30.7712-30.72 30.7712z" fill="#FF623E" p-id="3220"></path></svg>