<?xml version="1.0" standalone="no"?><!DOCTYPE svg PUBLIC "-//W3C//DTD SVG 1.1//EN" "http://www.w3.org/Graphics/SVG/1.1/DTD/svg11.dtd"><svg t="1776835814317" class="icon" viewBox="0 0 1024 1024" version="1.1" xmlns="http://www.w3.org/2000/svg" p-id="3057" xmlns:xlink="http://www.w3.org/1999/xlink" width="200" height="200"><path d="M512.9216 874.24c-8.0384 0-15.7184-3.1232-21.504-8.7552l-98.4576-96.3072c-12.1344-11.8784-12.3392-31.3344-0.4608-43.4176a30.73536 30.73536 0 0 1 43.4688-0.4608l76.0832 74.4448 69.4272-73.5232a30.73024 30.73024 0 0 1 43.4176-1.28 30.73024 30.73024 0 0 1 1.28 43.4176l-90.88 96.256a30.59712 30.59712 0 0 1-21.7088 9.6256h-0.6656z" fill="#FF623E" p-id="3058"></path><path d="M509.1328 850.432c-16.9472 0-30.72-13.7728-30.72-30.72V510.3104c0-16.9472 13.7728-30.72 30.72-30.72s30.72 13.7728 30.72 30.72v309.4016c0 16.9472-13.7216 30.72-30.72 30.72z" fill="#FF623E" p-id="3059"></path><path d="M760.7296 871.3216h-98.3552c-16.9472 0-30.72-13.7728-30.72-30.72s13.7728-30.72 30.72-30.72h98.3552c97.792 0 177.3056-79.5648 177.3056-177.3056s-79.5648-177.3056-177.3056-177.3056h-41.1136c-8.96 0-17.5104-3.9424-23.3472-10.752a30.75584 30.75584 0 0 1-7.0144-24.7296c1.4336-9.1136 2.1504-18.432 2.1504-27.648 0-97.5872-79.4112-176.9984-176.9984-176.9984S337.4592 294.5536 337.4592 392.1408c0 9.1648 0.7168 18.4832 2.1504 27.648 1.3824 8.8576-1.1776 17.92-7.0144 24.7296a30.80192 30.80192 0 0 1-23.3472 10.752h-41.1136c-97.792 0-177.3056 79.5648-177.3056 177.3056s79.5648 177.3056 177.3056 177.3056h94.2592c16.9472 0 30.72 13.7728 30.72 30.72s-13.7728 30.72-30.72 30.72H268.1344c-131.6352 0-238.7456-107.1104-238.7456-238.7456s107.1104-238.7456 238.7456-238.7456h7.8848v-1.6896c0-131.4816 106.9568-238.4384 238.4384-238.4384s238.4384 106.9568 238.4384 238.4384v1.6896h7.8848c131.6352 0 238.7456 107.1104 238.7456 238.7456s-107.1104 238.7456-238.7968 238.7456z" fill="#303135" p-id="3060"></path></svg>