<?xml version="1.0" standalone="no"?><!DOCTYPE svg PUBLIC "-//W3C//DTD SVG 1.1//EN" "http://www.w3.org/Graphics/SVG/1.1/DTD/svg11.dtd"><svg t="1776837746145" class="icon" viewBox="0 0 1024 1024" version="1.1" xmlns="http://www.w3.org/2000/svg" p-id="72311" xmlns:xlink="http://www.w3.org/1999/xlink" width="200" height="200"><path d="M928 960H384a32 32 0 0 1 0-64h544a32 32 0 1 1 0 64z" fill="#E8A113" p-id="72312"></path><path d="M905.28 252.064l-133.344-133.376a186.56 186.56 0 0 0-263.872 0L118.656 508.064a186.816 186.816 0 0 0 0 263.872l133.44 133.376a186.496 186.496 0 0 0 263.808 0l389.408-389.376a186.784 186.784 0 0 0 0-263.872z" fill="#FFC431" p-id="72313"></path><path d="M908.832 511.616L512.192 114.912c-1.344 1.28-2.784 2.432-4.128 3.744L118.656 508.064c-1.344 1.344-2.24 2.944-3.52 4.32l396.672 396.672c1.344-1.28 2.784-2.432 4.096-3.744l389.408-389.376c1.344-1.344 2.24-2.944 3.52-4.352z" fill="#548AFF" p-id="72314"></path></svg>