<?xml version="1.0" standalone="no"?><!DOCTYPE svg PUBLIC "-//W3C//DTD SVG 1.1//EN" "http://www.w3.org/Graphics/SVG/1.1/DTD/svg11.dtd"><svg t="1776839541620" class="icon" viewBox="0 0 1024 1024" version="1.1" xmlns="http://www.w3.org/2000/svg" p-id="81268" xmlns:xlink="http://www.w3.org/1999/xlink" width="200" height="200"><path d="M908.48 75.84a217.984 217.984 0 0 0-285.344 23.776L65.44 657.312 32.192 956.48a32 32 0 0 0 35.328 35.328l299.168-33.28 562.88-562.88a213.28 213.28 0 0 0-21.056-319.808z" fill="#FFC431" p-id="81269"></path><path d="M64 992a30.816 30.816 0 0 0 3.52-0.192l299.168-33.28 562.88-562.88a213.152 213.152 0 0 0-0.096-301.12L41.376 982.624A32 32 0 0 0 64 992z" fill="#E8A113" p-id="81270"></path><path d="M32.192 956.48a32 32 0 0 0 35.328 35.328l299.168-33.28-301.248-301.216-33.248 299.168zM908.48 75.84a217.984 217.984 0 0 0-285.344 23.776L594.752 128 896 429.248l33.6-33.6a213.312 213.312 0 0 0-21.12-319.808z" fill="#548AFF" p-id="81271"></path></svg>