<?xml version="1.0" standalone="no"?><!DOCTYPE svg PUBLIC "-//W3C//DTD SVG 1.1//EN" "http://www.w3.org/Graphics/SVG/1.1/DTD/svg11.dtd"><svg t="1776923480439" class="icon" viewBox="0 0 1024 1024" version="1.1" xmlns="http://www.w3.org/2000/svg" p-id="1163" xmlns:xlink="http://www.w3.org/1999/xlink" width="200" height="200"><path d="M512 983.04a471.04 471.04 0 1 1 471.04-471.04 471.3472 471.3472 0 0 1-471.04 471.04z m0-880.64a409.6 409.6 0 1 0 409.6 409.6 409.856 409.856 0 0 0-409.6-409.6z" fill="#3D3A3A" p-id="1164"></path><path d="M706.0992 481.28H542.72V317.9008a30.72 30.72 0 0 0-61.44 0V481.28H317.9008a30.72 30.72 0 0 0 0 61.44H481.28v163.3792a30.72 30.72 0 0 0 61.44 0V542.72h163.3792a30.72 30.72 0 0 0 0-61.44z" fill="#A46CF4" p-id="1165"></path></svg>