<svg xmlns="http://www.w3.org/2000/svg" xmlns:xlink="http://www.w3.org/1999/xlink" fill="none" version="1.1" width="200" height="200" viewBox="0 0 200 200"><defs><clipPath id="master_svg0_24_1652"><rect x="0" y="0" width="200" height="200" rx="0"/></clipPath></defs><g clip-path="url(#master_svg0_24_1652)"><path d="M287.30044921875003,175.0901171875L217.34044621875,175.0901171875C214.03044921875,175.0901171875,211.34044821875,172.4001171875,211.34044821875,169.0901171875C211.34044821875,165.7801171875,214.03044921875,163.0901171875,217.34044621875,163.0901171875L287.30044921875003,163.0901171875C313.27044921875,163.0901171875,334.41044921875,141.96011318749999,334.41044921875,115.9801181875C334.41044921875,90.0001221875,313.28043921874996,68.8701171875,287.30044921875003,68.8701171875L187.21044921875,68.8701171875C183.90044971875,68.8701171875,181.21044921875,66.1801147875,181.21044921875,62.8701171875C181.21044921875,59.5601195875,183.90044971875,56.8701171875,187.21044921875,56.8701171875L287.30044921875003,56.8701171875C319.89043921875,56.8701171875,346.41042921875,83.3801191875,346.41042921875,115.9801181875C346.41042921875,148.5801081875,319.89042921875,175.0901171875,287.30044921875003,175.0901171875Z" fill="#303135" fill-opacity="1" style="mix-blend-mode:passthrough" transform="matrix(-1,0,0,1,362.4208984375,0)"/><path d="M226.06094025,101.2099971932373C224.71094125,101.2099971932373,223.34093825,100.7499981932373,222.22093925000001,99.81999819323731L188.79093935,71.95999719323731C186.08812335,69.7131631932373,184.532618523,66.3747001932373,184.55093955994,62.85999919323731C184.560939789,59.340002193237304,186.14093975,56.0299991932373,188.86093905,53.799999193237305L222.26094025,26.439998593237306C224.82714125,24.395008083237304,228.56030625,24.791746143237305,230.63938124999999,27.330408093237306C232.71846025,29.869070093237305,232.37161225,33.6072043932373,229.86093925,35.719997193237305L196.68093825,62.910002193237304L229.91093825000002,90.5999961932373C232.45845425,92.7199911932373,232.80331425,96.5044611932373,230.68093825,99.0499931932373C229.53984825,100.4225981932373,227.84590125,101.21457519323731,226.06094025,101.2099971932373Z" fill="#FF623E" fill-opacity="1" style="mix-blend-mode:passthrough" transform="matrix(-1,0,0,1,369.1015625,0)"/></g></svg>