<?xml version="1.0" standalone="no"?><!DOCTYPE svg PUBLIC "-//W3C//DTD SVG 1.1//EN" "http://www.w3.org/Graphics/SVG/1.1/DTD/svg11.dtd"><svg t="1776922022684" class="icon" viewBox="0 0 1024 1024" version="1.1" xmlns="http://www.w3.org/2000/svg" p-id="1406" xmlns:xlink="http://www.w3.org/1999/xlink" width="200" height="200"><path d="M879.6672 331.3664H149.9648c-14.1312 0-25.6 11.4688-25.6 25.6s11.4688 25.6 25.6 25.6h55.7056v411.5456c0 60.2624 47.36 109.2608 105.5232 109.2608h402.2272c58.2144 0 105.5232-48.9984 105.5232-109.2608V382.5664h60.672c14.1312 0 25.6-11.4688 25.6-25.6s-11.4176-25.6-25.5488-25.6z m-111.872 462.7968c0 32-24.3712 58.0608-54.3232 58.0608H311.1936c-29.952 0-54.3232-26.0608-54.3232-58.0608V382.5664h510.9248v411.5968zM294.144 293.4272a25.61536 25.61536 0 0 0 33.3824-14.0288c27.4944-67.4304 92.3648-111.0016 165.1712-111.0016h28.7744c73.1136 0 138.0352 43.8272 165.4272 111.616a25.61536 25.61536 0 0 0 23.7568 16.0256c3.1744 0 6.4512-0.6144 9.5744-1.8432a25.56928 25.56928 0 0 0 14.1312-33.3312c-35.2256-87.2448-118.784-143.616-212.8896-143.616h-28.7744c-93.7472 0-177.2032 56.064-212.5824 142.848a25.6 25.6 0 0 0 14.0288 33.3312z" fill="#4D5156" p-id="1407"></path><path d="M410.6752 750.2336c-14.1312 0-25.6-11.4688-25.6-25.6v-225.28c0-14.1312 11.4688-25.6 25.6-25.6s25.6 11.4688 25.6 25.6v225.28c0 14.1312-11.4688 25.6-25.6 25.6z" fill="#FF6C6C" p-id="1408"></path><path d="M616.6016 750.2336c-14.1312 0-25.6-11.4688-25.6-25.6v-225.28c0-14.1312 11.4688-25.6 25.6-25.6s25.6 11.4688 25.6 25.6v225.28c0 14.1312-11.4688 25.6-25.6 25.6z" fill="#FF6C6C" p-id="1409"></path></svg>