<?xml version="1.0" standalone="no"?><!DOCTYPE svg PUBLIC "-//W3C//DTD SVG 1.1//EN" "http://www.w3.org/Graphics/SVG/1.1/DTD/svg11.dtd"><svg t="1776835825168" class="icon" viewBox="0 0 1024 1024" version="1.1" xmlns="http://www.w3.org/2000/svg" p-id="3378" xmlns:xlink="http://www.w3.org/1999/xlink" width="200" height="200"><path d="M642.2528 896.4608H284.0576c-16.9472 0-30.72-13.7728-30.72-30.72s13.7728-30.72 30.72-30.72h358.1952c132.9664 0 241.2032-108.1856 241.2032-241.2032s-108.1856-241.2032-241.2032-241.2032H129.792c-16.9472 0-30.72-13.7728-30.72-30.72s13.7728-30.72 30.72-30.72h512.4608c166.8608 0 302.6432 135.7312 302.6432 302.6432s-135.7824 302.6432-302.6432 302.6432z" fill="#303135" p-id="3379"></path><path d="M294.5024 518.1952c-6.912 0-13.9264-2.3552-19.6608-7.1168L103.68 368.4352a60.18048 60.18048 0 0 1-21.7088-46.592c0.0512-18.0224 8.1408-34.9696 22.0672-46.3872l171.008-140.0832a30.70976 30.70976 0 0 1 38.912 47.5136L144.0768 322.0992 314.2144 463.872a30.70464 30.70464 0 0 1 3.9424 43.264 30.65856 30.65856 0 0 1-23.6544 11.0592z" fill="#FF623E" p-id="3380"></path></svg>